<?xml version="1.0" encoding="UTF-8"?>
<svg id="Layer_1" data-name="Layer 1" xmlns="http://www.w3.org/2000/svg" xmlns:xlink="http://www.w3.org/1999/xlink" viewBox="0 0 1024 1024">
  <defs>
    <style>
      .cls-1 {
        fill: url(#linear-gradient-15);
      }

      .cls-2 {
        fill: url(#linear-gradient-13);
      }

      .cls-3 {
        fill: url(#linear-gradient-28);
      }

      .cls-4 {
        fill: url(#linear-gradient-2);
      }

      .cls-5 {
        fill: url(#linear-gradient-25);
      }

      .cls-6 {
        fill: url(#linear-gradient-10);
      }

      .cls-7 {
        fill: url(#linear-gradient-12);
      }

      .cls-8 {
        fill: url(#linear-gradient-27);
      }

      .cls-9 {
        fill: url(#linear-gradient-26);
      }

      .cls-10 {
        fill: url(#linear-gradient-4);
      }

      .cls-11 {
        fill: url(#linear-gradient-30);
      }

      .cls-12 {
        fill: url(#radial-gradient);
      }

      .cls-13 {
        fill: url(#linear-gradient-3);
      }

      .cls-14 {
        fill: url(#linear-gradient-5);
      }

      .cls-15 {
        fill: url(#linear-gradient-22);
      }

      .cls-16 {
        fill: url(#linear-gradient-24);
      }

      .cls-17 {
        fill: url(#Sandstone-2);
      }

      .cls-18 {
        fill: url(#Sandstone);
      }

      .cls-19 {
        fill: url(#linear-gradient-8);
      }

      .cls-20 {
        fill: url(#radial-gradient-2);
      }

      .cls-21 {
        fill: url(#linear-gradient-14);
      }

      .cls-22 {
        fill: url(#linear-gradient-29);
      }

      .cls-23 {
        fill: url(#linear-gradient-20);
      }

      .cls-24 {
        fill: url(#linear-gradient-17);
      }

      .cls-25 {
        fill: url(#linear-gradient-7);
      }

      .cls-26 {
        fill: url(#linear-gradient-9);
      }

      .cls-27 {
        fill: url(#linear-gradient-11);
      }

      .cls-28 {
        fill: url(#linear-gradient-19);
      }

      .cls-29 {
        fill: url(#linear-gradient-6);
      }

      .cls-30 {
        fill: url(#Sandstone-3);
      }

      .cls-31 {
        fill: #322300;
        stroke: #322300;
        stroke-miterlimit: 10;
        stroke-width: .5px;
      }

      .cls-32 {
        fill: url(#linear-gradient-21);
      }

      .cls-33 {
        fill: url(#linear-gradient-16);
      }

      .cls-34 {
        fill: url(#linear-gradient);
      }

      .cls-35 {
        fill: url(#linear-gradient-23);
      }

      .cls-36 {
        fill: url(#linear-gradient-18);
      }
    </style>
    <linearGradient id="Sandstone" x1="450.64" y1="624.36" x2="616.48" y2="624.36" gradientUnits="userSpaceOnUse">
      <stop offset="0" stop-color="#d6b881"/>
      <stop offset="1" stop-color="#7c6a46"/>
    </linearGradient>
    <linearGradient id="Sandstone-2" data-name="Sandstone" x1="262.12" y1="566.06" x2="437.88" y2="566.06" xlink:href="#Sandstone"/>
    <linearGradient id="Sandstone-3" data-name="Sandstone" x1="629.03" y1="528.34" x2="758.31" y2="528.34" xlink:href="#Sandstone"/>
    <linearGradient id="linear-gradient" x1="463.77" y1="442.46" x2="571.38" y2="381.49" gradientUnits="userSpaceOnUse">
      <stop offset="0" stop-color="#322300"/>
      <stop offset="1" stop-color="#857880"/>
    </linearGradient>
    <linearGradient id="linear-gradient-2" x1="466.96" y1="901.12" x2="557.51" y2="810.58" xlink:href="#linear-gradient"/>
    <linearGradient id="linear-gradient-3" x1="80.34" y1="270.98" x2="222.81" y2="270.98" xlink:href="#linear-gradient"/>
    <linearGradient id="linear-gradient-4" x1="801.06" y1="270.33" x2="942.94" y2="270.33" xlink:href="#linear-gradient"/>
    <linearGradient id="linear-gradient-5" x1="64.75" y1="325.67" x2="213.8" y2="325.67" xlink:href="#linear-gradient"/>
    <linearGradient id="linear-gradient-6" x1="808.09" y1="326.23" x2="958.66" y2="326.23" xlink:href="#linear-gradient"/>
    <linearGradient id="linear-gradient-7" x1="65.01" y1="385.18" x2="220.42" y2="385.18" xlink:href="#linear-gradient"/>
    <linearGradient id="linear-gradient-8" x1="802.81" y1="384.65" x2="958.66" y2="384.65" xlink:href="#linear-gradient"/>
    <linearGradient id="linear-gradient-9" x1="78.48" y1="442.68" x2="228.61" y2="442.68" xlink:href="#linear-gradient"/>
    <linearGradient id="linear-gradient-10" x1="794.48" y1="442.1" x2="945.67" y2="442.1" xlink:href="#linear-gradient"/>
    <linearGradient id="linear-gradient-11" x1="407.89" y1="888.85" x2="507.99" y2="788.75" xlink:href="#linear-gradient"/>
    <linearGradient id="linear-gradient-12" x1="533.62" y1="871.4" x2="599.11" y2="805.91" xlink:href="#linear-gradient"/>
    <linearGradient id="linear-gradient-13" x1="212.07" y1="366.05" x2="354.37" y2="366.05" xlink:href="#linear-gradient"/>
    <linearGradient id="linear-gradient-14" x1="202.44" y1="406.26" x2="334.03" y2="406.26" xlink:href="#linear-gradient"/>
    <linearGradient id="linear-gradient-15" x1="103.81" y1="496.39" x2="244.86" y2="496.39" xlink:href="#linear-gradient"/>
    <linearGradient id="linear-gradient-16" x1="777.9" y1="496.43" x2="919.94" y2="496.43" xlink:href="#linear-gradient"/>
    <linearGradient id="linear-gradient-17" x1="382.42" y1="854.98" x2="477.87" y2="759.53" xlink:href="#linear-gradient"/>
    <linearGradient id="linear-gradient-18" x1="570.18" y1="831.41" x2="618.72" y2="782.88" xlink:href="#linear-gradient"/>
    <linearGradient id="linear-gradient-19" x1="731.44" y1="395.66" x2="820.9" y2="395.66" xlink:href="#linear-gradient"/>
    <linearGradient id="linear-gradient-20" x1="769.88" y1="544.76" x2="882.1" y2="544.76" xlink:href="#linear-gradient"/>
    <linearGradient id="linear-gradient-21" x1="141.69" y1="544.62" x2="250.76" y2="544.62" xlink:href="#linear-gradient"/>
    <linearGradient id="linear-gradient-22" x1="206.77" y1="437.22" x2="316.05" y2="437.22" xlink:href="#linear-gradient"/>
    <linearGradient id="linear-gradient-23" x1="731.36" y1="439.6" x2="816.27" y2="439.6" xlink:href="#linear-gradient"/>
    <linearGradient id="linear-gradient-24" x1="731.5" y1="584.18" x2="838.77" y2="584.18" xlink:href="#linear-gradient"/>
    <linearGradient id="linear-gradient-25" x1="750.63" y1="345.8" x2="810.8" y2="345.8" xlink:href="#linear-gradient"/>
    <linearGradient id="linear-gradient-26" x1="731.77" y1="480.73" x2="806.84" y2="480.73" xlink:href="#linear-gradient"/>
    <linearGradient id="linear-gradient-27" x1="184.17" y1="584.37" x2="250.6" y2="584.37" xlink:href="#linear-gradient"/>
    <linearGradient id="linear-gradient-28" x1="217.8" y1="474.97" x2="270.03" y2="474.97" xlink:href="#linear-gradient"/>
    <linearGradient id="linear-gradient-29" x1="732.69" y1="510.65" x2="790.22" y2="510.65" xlink:href="#linear-gradient"/>
    <linearGradient id="linear-gradient-30" x1="233.18" y1="510.42" x2="252.7" y2="510.42" xlink:href="#linear-gradient"/>
    <radialGradient id="radial-gradient" cx="511.7" cy="511.91" fx="511.7" fy="511.91" r="458.19" gradientUnits="userSpaceOnUse">
      <stop offset=".87" stop-color="#857880"/>
      <stop offset="1" stop-color="#322300"/>
    </radialGradient>
    <radialGradient id="radial-gradient-2" cy="511.05" fy="511.05" r="399.55" xlink:href="#radial-gradient"/>
  </defs>
  <g>
    <g>
      <path class="cls-18" d="M572.63,712.41c-5.2,15.02-15.15,26.71-26.69,36.43l-27.69,23.32c-.98-6.64-1.35-11.47-1.36-17.98l-.23-214.56c-.02-14.75,1.53-27.65,9.98-40.44-11.79-2.35-23.01-2.5-33.33,1.79-12.9,5.36-20.87,16.84-19.92,30.7,7.58-4.02,16.36-3.37,22.55.95,4.49,3.14,11.1,10.39,11.11,18.34l.23,222.61-30.88-28.31c-15.95-13.13-25.67-31.76-25.68-52.94l-.08-160.72c0-10.04,2.64-20.17,7.2-28.66,14.79-27.54,54.24-32.99,82.64-23.33,4.14,1.41,7.87,1.21,11.88-.51,16.76-7.15,36.65-4.74,49.69,8.21,11.22,11.15,13.64,26.06,13.74,41.52.29,49.17,1.87,97.29-1.03,146.06-1.14,19.16-12.73,34.06-29.86,43.35l-4.33-27.41c5.99-4.78,10.62-10.22,11.01-17.87.83-16.2.38-31.75.33-48.09l-.18-69.44c-.03-12.98.65-25.6-.89-38.11-1.56-12.68-12.53-22.26-25.14-19.46,4.58,9.8,9.6,18.89,9.61,29.82l.14,159.81c0,8.44.03,16.63-2.83,24.89ZM552.57,697.49l-.23-162.42c-.01-8.46-1.51-16.05-5.91-23.76-4.49,6.21-5.92,11.98-5.92,18.94l.06,191.06c7.07-5.48,12.01-13.83,11.99-23.81ZM484.61,722.87l-.27-163.51c0-2.83-3.65-6.57-5.69-6.56-1.79,0-4.8,3-4.8,5.47v145.19c.02,7.9,3.27,15.58,10.77,19.41Z"/>
      <path class="cls-17" d="M324.14,504.12c-8.05-8.88-23.41-7.36-31.02.99-7.16,7.86-8.57,18.84-7.56,29.27,12.67-5.61,26.33-1.4,31.78,10.78,2.51,5.59,3.6,12.01,3.58,18.34l-.38,102.72c-.03,8.01-2.98,16.9-8.44,22.39-10.74,10.82-29.6,10.38-40.37-.43-6.14-6.16-9.58-15.91-9.58-25.06l-.03-144.85c0-19.1,13.13-34.15,29.91-40.53,13.79-5.25,29-3.47,41.69,2.84.97,22.57,5.07,37.08,25.41,48.33l.02,117.3c0,9.1-3.01,16.71-5.78,25.86l24.32-.52-.29-44.89-.42-101.07c-45.48-5.44-33.4-50.35-34.94-83.1,1.19-5.79,2.39-11.39,5.17-16.32,5.45-9.64,17.21-13.69,27.26-8.43,15.28,8,29.61,15.72,44.51,24.68,10.17,6.11,18.84,17.49,18.84,30.57l.06,243.72c-8.63-5.87-15.49-13.05-22.63-21.61l-.14-215.65c0-7.31-2.38-12.83-8.37-17.22s-31.79-20.94-37.84-16.72c-1.3.91-2.93,3.79-2.94,5.52l-.18,35.15c-.03,5.64,3.11,13.56,7.97,15.51,1.46.59,3.56-3.45,3.55-5.01l-.16-19.91,23.73-.15-.02,218.77-77.41-.04-.22-22.4c7.55-5.48,11.09-13.34,11.08-22.77l-.08-112.03c0-12-1.45-24.51-10.07-34.03ZM296.73,665.35l-.1-104.17c0-1.4-2.17-4.19-3.16-4.91s-4.29-.4-5.15.5c-2.55,2.68-3.77,7.92-3.77,11.97l.02,98.69c0,3.54,4.79,6.73,7.24,6.29,2.97-.53,4.93-3.67,4.93-8.37Z"/>
      <path class="cls-30" d="M709.57,685.8c-11.84,12.11-35.26,11.54-50.91,9.2-21.94-3.29-29.43-22.71-29.47-42.64l-.16-83.6c-.03-14.71,2.69-31.38,19.69-35.63l.07-96.4c0-5.99,2.83-9.79,7.16-13.07l30.3-22.95,52.28-40.36c1.17,8.95,1.08,17.88-.11,26.48l-11.54,9.25c-4.07,3.26-7.09,9.53-7.09,15.15v118.54s38.19.3,38.19.3l.31,23.83-38.45.58-.03,102.42c0,10.68-2.72,21.19-10.26,28.91ZM691.98,529.68l-.21-103.18c-7.51,4.78-11.87,8.39-17.61,13.3l-.12,90.03,17.95-.15ZM679.04,671.79c8.2.27,13.34-5.59,13.34-13.35l-.07-104.21-29,.07c-3.46,0-7.63,6.76-7.63,10.74l.05,90.45c0,4.35,2.18,12.07,5.45,13.94,5.07,2.9,11.44,2.15,17.87,2.35Z"/>
    </g>
    <path class="cls-34" d="M564.57,396.44c-14.6,4.17-16.21,26.94-9.02,42.72,4.09,8.99,9.86,17.21,16.12,25.96l-27.06,6.09c-22.97-9.38-55.1-6.94-76.14,6.61-7.74,4.99-12.54,11.27-19.3,19.32.84-10.25,2.73-19.59,4.82-29.58,5.95-28.37,15.17-69.62,28.6-95.05-5.87-4.61-11.47-9.07-14.03-16.56,15.86,2.31,30.29,1.66,45.45-2.32,17.57-4.61,38.41-6.04,48.38,11.83,5.55.55,11.36.88,16.53,2.4,13.86,4.07,20.01,21.31,12.14,32.75-1.72-5.35-3.48-12-8.97-13.32-7.15-1.72-33.92-2.36-36.2,2.46,13.56-1.48,25.66-2.55,39.22,2.03-7.02,1.48-13.5,2.64-20.54,4.65ZM531.84,362.62c6.37-1.44,12.97,3.44,19.64,2.89-11.03-9.8-27.93-7.91-38.9,1.48l19.27-4.37ZM551.77,369.62c-5.73,2.56-8.2,7.19-12.98,6.98-4.26-.19-8.23-3.45-12.25-6.04-2.77-1.68-9.83,1.28-12.53,2.67,4.74,1.14,9.13,1.82,13.26,3.64,8.72,3.83,21.89,3.87,24.5-7.24Z"/>
    <g>
      <path class="cls-4" d="M538.59,906.12c-2.68,16.7-12.63,29.23-26.36,37.57-13.89-7.82-22.98-21.26-26.26-37.11l6.15-71.23,5.62-55.46c6.77,8.06,9.93,16.05,14.11,25.38,4.18-9.01,7.56-17.36,15.07-25.28l11.67,126.13Z"/>
      <path class="cls-13" d="M198.83,298.55c3.38,21.48,13.42,37.42,23.97,55.5-27.16-17.05-51.47-33.01-76.1-50.63-40.29-28.82-69.61-61.58-66.08-115.52,17.9,21.03,35.99,39.45,56.8,56.67l55.47,45.89c1.87,1.61,5.5,5.27,5.94,8.1Z"/>
      <path class="cls-10" d="M801.06,353.07c11.14-19.5,21.19-37.01,24.41-58.53l46.72-37.9c25.77-20.61,48.63-42.95,70.34-69.05,4.17,49.93-23,84.1-60.33,111.47-26.23,18.65-51.72,36.32-81.13,54.01Z"/>
      <path class="cls-14" d="M201.69,376.57l12.11,20.34c-16.52-7.63-30.42-15.43-45.86-23.84-19.86-10.83-39.15-21.49-57.1-35.21-26.41-20.2-43.99-49.99-46.1-83.42,40.02,35.07,78.43,58.55,121.61,87.14,3.95,12.35,8.66,23.78,15.33,34.99Z"/>
      <path class="cls-29" d="M894.23,350.51c-28.23,17.41-55.57,32.49-86.14,47.79,11.97-18.1,22.77-34.87,28.59-55.55l74.69-50.83c16.5-11.98,31.52-23.61,47.3-37.75.1,39.42-32.3,77.05-64.43,96.35Z"/>
      <path class="cls-25" d="M220.42,444.58l-57.27-22.55c-16.78-6.61-32.05-14.17-47.24-23.58-24.9-17.04-44.52-40.93-50.9-72.66,29.37,18.67,58.29,35.32,89.06,50.4l39.56,21.06c5.44,17.15,14.9,30.55,26.78,47.33Z"/>
      <path class="cls-19" d="M825.9,435.58l-23.09,8.77c12.08-15.84,21.29-30.55,28.77-47.76l54.14-28.69c24.91-13.2,48.24-26.92,72.95-42.96-6.56,35.49-34.92,64.1-64.03,81.04-22.4,11.23-44.68,20.45-68.73,29.59Z"/>
      <path class="cls-26" d="M202.07,447.91c7.16,14.97,16.6,26.46,26.53,40.11-29.06-7.35-54.57-14.78-80.6-24.1-31.7-11.35-58.14-33.18-69.52-66.58,4.99,1.75,9.24,4.69,14.25,6.69l109.34,43.87Z"/>
      <path class="cls-6" d="M794.48,487.87c10.81-13.47,19.95-24.89,27.59-39.41l77.27-30.62,46.32-21.52c-10.39,30.12-33.72,51.73-61.77,64.41l-44.98,15.13-44.44,12Z"/>
      <path class="cls-27" d="M478.78,866.64c-3.09,25.94-22.39,45.3-48.16,44.94l12.17-44,31.01-110.1c6.23,4.34,10.88,8.34,16.39,13.47l-11.41,95.69Z"/>
      <path class="cls-7" d="M593.18,911.7c-25.33.44-44.05-19.5-47.08-44.04l-11.91-96.68,16.47-13.52,30.03,107.72,12.49,46.51Z"/>
      <path class="cls-2" d="M354.37,406.97c-6.72,5.74-12.5,10.4-16.85,18.54l-71.37-43.76c-27.42-16.81-48.9-41.49-54.08-75.15l45.83,34.02,96.47,66.35Z"/>
      <path class="cls-21" d="M332.22,459.54l-88.55-46.03c-9.38-4.88-16.19-11.19-22.16-19.56-8.78-12.32-17.27-25.04-19.07-40.98l73.4,45.7,58.19,36.09-1.81,24.78Z"/>
      <path class="cls-1" d="M244.86,528.45c-27.2-2.32-68.8-8.43-93.65-19.74-20.15-9.17-38.09-23.4-47.4-44.38l116.22,32.33c6.8,11.9,14.33,20.08,24.83,31.79Z"/>
      <path class="cls-33" d="M813.86,523.73l-35.96,4.74c9.98-10.81,18.39-20.73,26.29-32.24l115.74-31.84c-19.96,40.59-62.93,53.65-106.08,59.33Z"/>
      <path class="cls-24" d="M444.53,833.16c-6.15,21.73-27.87,36.31-49.62,34.32l35.77-79.96,22.89-52.28,14.08,16.2-23.13,81.71Z"/>
      <path class="cls-36" d="M610.62,865.39c-19.88-6.95-28.79-24.16-34.1-43.1l-19.59-69.9,14.35-16.94,12.51,29.52,45.51,102.19c-5.86,1.85-12.34.45-18.68-1.77Z"/>
      <path class="cls-28" d="M731.75,437.98l-.3-29.8,54.47-33.29c11.25-7.58,21.54-14.69,34.99-21.54-13.39,54.57-42.89,60.5-89.15,84.63Z"/>
      <path class="cls-23" d="M882.1,526.04c-27.22,37.32-71.46,38.55-112.22,37.09l.25-23.67,27.47-3.21,84.5-10.2Z"/>
      <path class="cls-32" d="M250.76,563.62c-34.33.57-66.15.39-94.46-21.51-5.93-4.58-11.02-9.9-14.61-16.63l109.02,13.56.06,24.58Z"/>
      <path class="cls-15" d="M316.05,462.49c-8.12,3.93-18.66-.34-34.05,7.76-13.42-5.82-26.47-10.71-38.83-17.84-17.87-10.31-30.36-27.73-36.39-48.21l109.28,58.29Z"/>
      <path class="cls-35" d="M732,473.72l-.64-24.5,59.79-31.89c8.08-4.31,15.73-8.04,25.11-11.84-18.18,47.99-40.7,48.66-84.26,68.24Z"/>
      <path class="cls-16" d="M838.77,574.94c-27.65,30.28-70.12,20.09-107.26,14.86l.11-17.19,84.09.57c7.19.05,13.67.94,23.05,1.76Z"/>
      <path class="cls-5" d="M750.96,383.96l-.33-32.46,60.16-43.86c-4.67,31.45-24.44,56.91-51.18,71.58l-8.65,4.74Z"/>
      <path class="cls-9" d="M731.96,506.4l-.19-21.3,58.72-24.16c5.16-2.12,10.05-3.91,16.34-5.89-10.59,32.02-44.66,41.75-74.88,51.35Z"/>
      <path class="cls-8" d="M249.83,595.61c-26.13,1.4-47.29-1.01-65.66-21.26l24.29-1.1,42.14-.46-.77,22.81Z"/>
      <path class="cls-3" d="M270.03,476.59c-5.63,6.86-8.87,11.85-12.77,18.81-18.22-7.01-34.71-20.73-39.47-40.86l52.23,22.06Z"/>
      <path class="cls-22" d="M766.93,518.67l-34.24-1.06c11.96-5.45,24.25-8.68,37.21-11.9l20.32-5.06c-3.43,7.47-8.28,11.65-14.16,16.57l-3.94,3.3c-.9.75-3.95-1.81-5.18-1.85Z"/>
      <path class="cls-11" d="M252.7,505.42l-2.33,14.63c-7.84-6.06-13.2-10.93-17.19-19.27l19.52,4.64Z"/>
    </g>
  </g>
  <path class="cls-12" d="M511.7,53.72c-149.45,0-282.2,71.56-365.82,182.28l31.9,26.39c76.02-101.58,197.29-167.31,333.92-167.31s258.08,65.83,334.08,167.53l18.84-15.28c4.49-3.59,8.88-7.23,13.19-10.95-83.61-110.94-216.49-182.66-366.11-182.66ZM948.92,374.49c-3.2,4.2-6.56,8.11-9.99,11.74l11.89-5.52h0c-.62-2.09-1.25-4.16-1.9-6.22ZM956.52,401.61c-6.53,18.18-17.72,34.36-32.68,47.59h0c.08.55.16,1.07.24,1.61l18.4-5.06-11.78,23.94c-1.14,2.32-2.35,4.57-3.66,6.77h0c.99,11.69,1.49,23.51,1.49,35.45,0,197.34-137.13,362.65-321.31,405.83l1.53,5.69-15.37.26c-.34.01-.68.01-1.02.01-3.45,0-6.83-.31-10.12-.91-12.56,2.15-25.32,3.73-38.24,4.71-5.55,10.57-14.17,19.54-25.55,26.44l-6,3.64-6.11-3.44c-11.03-6.2-19.76-15.34-25.58-26.54-13.41-.97-26.62-2.59-39.64-4.82h-.01c-3.2.54-6.47.81-9.78.81-.29,0-.59-.01-.88-.01l-15.54-.22,1.54-5.56c-184.31-43.08-321.58-208.45-321.58-405.89,0-12.01.51-23.91,1.51-35.66-1.29-2.3-2.47-4.65-3.54-7.05l-10.32-23.24,16.83,4.68c.05-.4.11-.79.17-1.19-14.95-13.18-26.02-29.52-32.4-48.23l-.08-.23c-8.84,35.52-13.53,72.67-13.53,110.92,0,253.05,205.14,458.19,458.19,458.19s458.19-205.14,458.19-458.19c0-38.03-4.63-74.97-13.37-110.3Z"/>
  <path class="cls-20" d="M474.21,909.01l-.35-1.72.19-2.24c-.73.8-1.49,1.58-2.27,2.33-.81.79-1.65,1.55-2.5,2.28,1.72.19,3.45.36,5.18.51-.09-.38-.17-.77-.25-1.16ZM551.55,905.24l.09,1.28-.19,1.5c-.09.69-.18,1.37-.28,2.04,1.28-.14,2.54-.31,3.81-.5-1.2-1.35-2.35-2.79-3.44-4.32ZM511.7,111.93c-131.4,0-248.01,63.37-320.92,161.21l9.93,8.22c1.3,1.12,2.99,2.71,4.61,4.65,69.32-93.87,180.74-154.74,306.38-154.74s236.6,60.62,305.95,154.16l15.04-12.2c-72.91-97.89-189.55-161.3-320.99-161.3ZM911.39,496.6c-5.62,5.59-11.98,10.59-19.05,14.99v1.13l15.71-1.9-16.26,22.29s-.02.03-.04.05h0c-8.51,154.7-109.4,284.78-248.43,336.01l2.4,5.39-12.81,4.05c-2.97.93-6.16,1.41-9.47,1.41-3.11,0-6.34-.4-9.89-1.25h0c-5.19,1.44-10.43,2.77-15.71,3.99l5.02,18.7c176.98-41.25,308.83-200.01,308.83-389.55,0-5.13-.1-10.23-.29-15.31ZM409.47,878.66c-3.46.66-7,1-10.57,1-1.69,0-3.4-.08-5.08-.23l-16.71-1.53,3.77-8.43c-139.79-51.16-241.21-181.96-249.29-337.46-.17-.29-.33-.58-.49-.88l-10.9-20.41,10.86,1.35v-.55c-7.12-4.44-13.49-9.43-19.05-14.92-.19,5.08-.29,10.18-.29,15.31,0,189.68,132.04,348.53,309.22,389.64l5.16-18.67c-5.59-1.28-11.14-2.69-16.63-4.22Z"/>
  <g>
    <path class="cls-31" d="M335.51,250.33l-8.47,5.06,23.23,38.87-22.19,13.26-4.14-6.93,14.92-8.92-19.09-31.93-16.65,9.95c-1.87,1.12-3.1,2.64-3.67,4.56-.47,1.6-.47,3.03-.01,4.29.84-1.59,2.43-3.09,4.78-4.49,3.28-1.96,6.71-2.51,10.29-1.64,3.58.87,6.36,2.94,8.33,6.24,2.22,3.71,2.86,7.4,1.92,11.09-.94,3.68-3.26,6.62-6.95,8.83-4.08,2.44-8.52,2.7-13.32.8-4.42-1.76-7.87-4.73-10.37-8.91-3.24-5.43-4-10.88-2.26-16.35,1.68-5.25,5.27-9.52,10.75-12.79l29.09-17.39,3.82,6.39ZM316.75,282.73c-.93-1.55-2.23-2.53-3.91-2.93-1.68-.4-3.31-.14-4.88.8-1.46.87-2.41,2.19-2.85,3.96-.44,1.77-.22,3.38.66,4.85,2.07,3.46,4.94,4.1,8.6,1.91,3.69-2.21,4.49-5.07,2.38-8.58Z"/>
    <path class="cls-31" d="M378.84,245.02l-8.13,3.51,2.32,5.37c1.32,3.05,1.35,6.37.11,9.96-1.44,4.1-4.17,7.02-8.17,8.75-3.51,1.51-7.04,1.46-10.61-.16-3.57-1.62-6.12-4.21-7.65-7.76-1.84-4.26-1.58-8.52.77-12.77l-5.28-12.21,28.94-12.51,3.03,7.02-7.78,3.36,1.59,3.69,7.78-3.36,3.07,7.1ZM359.72,244.85l-1.54-3.55-5.43,2.35,1.54,3.55,5.43-2.35ZM366.04,259.83l-3.38-7.82-7.47,3.23c-2.41,1.71-2.92,4.16-1.54,7.36.64,1.48,1.76,2.53,3.36,3.16,1.6.63,3.14.62,4.61-.01,2.8-1.21,4.27-3.18,4.42-5.92Z"/>
    <path class="cls-31" d="M417.13,220.93l-9.85,3.02,9.21,30.07-7.87,2.41-9.21-30.07-11.65,3.57,9.2,30.07-7.69,2.35-11.46-37.42,37.05-11.34,2.25,7.35Z"/>
    <path class="cls-31" d="M479.13,242l-35.51,5.66-1.1-6.92-6.04,7.25.11.8-8.03,1.28-6.18-38.75,7.61-1.21,4.47,28.04,7.14-8.39-3.35-20.97,8.13-1.3,4.95,31.05,18.78-3-4.95-31.05,7.8-1.24,6.18,38.75Z"/>
    <path class="cls-31" d="M524.61,209.59l-10.3.21.63,31.44-8.23.17-.63-31.44-12.18.25.63,31.44-8.04.16-.79-39.13,38.74-.78.15,7.69Z"/>
    <path class="cls-31" d="M590.95,241.48l-8.13-1.31-1.25,7.79-6.32-1.02,1.25-7.79-25.52-4.11,1.07-6.64,32.35-31.34,5.51.89-5.75,35.73,7.84,1.26-1.05,6.54ZM577.95,232.58l3.85-23.94-21.41,21.01,17.56,2.93Z"/>
    <path class="cls-31" d="M637.85,237.3c-2.17,7.6-6.33,12.97-12.46,16.11-4.93,2.55-9.62,3.19-14.07,1.92-5.74-1.64-9.82-5.54-12.23-11.7-2.24-5.7-2.52-11.52-.82-17.44,1.7-5.95,5.02-11.03,9.96-15.22,5.58-4.71,11.37-6.21,17.36-4.5,6.26,1.79,10.37,6.3,12.31,13.53,1.61,5.83,1.59,11.59-.04,17.3ZM631.73,235.43c1.3-4.55,1.39-8.95.27-13.19-1.32-4.97-4.11-8.06-8.36-9.27-3.89-1.11-7.75.31-11.59,4.28-3.26,3.35-5.5,7.15-6.71,11.4-1.2,4.21-1.26,8.33-.18,12.36,1.25,4.61,3.85,7.48,7.8,8.61,3.73,1.07,7.61-.13,11.64-3.61,3.63-3.12,6-6.64,7.13-10.57Z"/>
    <path class="cls-31" d="M659.5,261.67c-.99,2.49-2.82,4.29-5.5,5.41-2.67,1.12-5.25,1.19-7.72.21-2.68-1.07-4.51-2.82-5.47-5.25-.97-2.43-.9-5.01.18-7.74,1.07-2.7,2.93-4.61,5.58-5.75,2.65-1.13,5.31-1.17,7.99-.1,2.44.97,4.14,2.83,5.09,5.57.91,2.58.86,5.13-.14,7.65ZM666.57,240.27c-.99,2.49-2.85,4.3-5.58,5.43-2.73,1.13-5.33,1.21-7.81.22-2.65-1.06-4.47-2.83-5.45-5.32-.98-2.49-.93-5.08.14-7.78s2.93-4.57,5.58-5.62c2.65-1.05,5.32-1.03,8.04.05,2.53,1.01,4.29,2.8,5.27,5.38.9,2.51.84,5.05-.19,7.63Z"/>
    <path class="cls-31" d="M709.8,274.86c-2.72,5.17-6.84,8.59-12.37,10.27s-10.86,1.17-16-1.54c-5.59-2.95-9.35-7.64-11.28-14.06-1.93-6.43-1.41-12.45,1.55-18.07.45-.86.94-1.64,1.46-2.35l5.88,3.1c-.86,1.01-1.57,2.05-2.14,3.14-2.13,4.05-2.47,8.23-1,12.54,1.47,4.31,4.23,7.53,8.29,9.67,3.72,1.96,7.6,2.42,11.63,1.37,4.03-1.05,7.03-3.42,8.98-7.13,1.43-2.71,1.8-5.83,1.12-9.35-.59-3.08-1.68-5.27-3.27-6.59l-13.34,1.78-.93-6.84,20.95-2.27-27.26-14.36,3.2-6.08,35.9,18.91-3.86,7.32-7.2.86c1.36,2.1,2.16,4.64,2.41,7.61.32,4-.58,8.02-2.71,12.08Z"/>
    <path class="cls-31" d="M712.17,301.93l-4.83-3.17,27.82-42.39,4.83,3.17-27.82,42.39Z"/>
  </g>
</svg>